<mxfile host="app.diagrams.net" modified="2023-05-29T09:40:55.618Z" agent="Mozilla/5.0 (Windows NT 10.0; Win64; x64) AppleWebKit/537.36 (KHTML, like Gecko) Chrome/113.0.0.0 Safari/537.36" version="21.2.2" etag="W-wb4HD32AI8qG2YuNsk" type="onedrive">
  <diagram name="Page-1" id="zW49PuZD6BxnXwl1E-Vh">
    <mxGraphModel>
      <root>
        <mxCell id="0" />
        <mxCell id="1" parent="0" />
      </root>
    </mxGraphModel>
  </diagram>
</mxfile>
